<?xml version="1.0" encoding="UTF-8"?>
<svg width="88px" height="100px" viewBox="0 0 88 100" version="1.1" xmlns="http://www.w3.org/2000/svg" xmlns:xlink="http://www.w3.org/1999/xlink">
    <!-- Generator: Sketch 54.1 (76490) - https://sketchapp.com -->
    <title>ledger</title>
    <desc>Created with Sketch.</desc>
    <g id="Main" stroke="none" stroke-width="1" fill="none" fill-rule="evenodd">
        <g id="My-Kin-Wallet-992" transform="translate(-650.000000, -402.000000)" stroke="#9A62FE" stroke-width="1.42">
            <g id="ledger" transform="translate(650.000000, 403.000000)">
                <path d="M57.997234,53.4517021 L57.997234,53.4517021 C58.0000048,54.3217243 57.6563305,55.1570624 57.0421076,55.7732414 C56.4278848,56.3894204 55.5936436,56.7357491 54.723617,56.7357447 L24.3957447,56.7357447 C23.5275261,56.7329841 22.6959646,56.3854357 22.0839966,55.7695573 C21.4720285,55.1536789 21.1297838,54.3199207 21.1325532,53.4517021 L21.1325532,29.1914894 C21.1297824,28.3242322 21.4723583,27.4915458 22.084626,26.877322 C22.6968937,26.2630982 23.5284831,25.9178679 24.3957447,25.9178723 L28.3365957,25.9178723 L28.3365957,18.0153191 C28.0968085,7.58978723 31.4642553,10.9885106 35.3634043,10.9885106 L43.787234,10.9885106 C47.6632803,10.9999614 50.8025918,14.1392729 50.8140426,18.0153191 L50.8140426,25.8865957 L54.7444681,25.8865957 C55.6153855,25.8893071 56.4490826,26.2400506 57.0600026,26.8607609 C57.6709226,27.4814713 58.0083683,28.3206389 57.997234,29.1914894 L57.997234,53.4829787 L57.997234,53.4517021 Z" id="Path" fill="#EAE5FA" fill-rule="nonzero"></path>
                <polyline id="Path" points="18.776383 60.3638298 18.776383 71.2480851 5.86957447 77.8891489 5.86957447 87.22"></polyline>
                <circle id="Oval" cx="5.86957447" cy="92.3493617" r="5.1293617"></circle>
                <circle id="Oval" cx="42.473617" cy="81.6110638" r="5.1293617"></circle>
                <circle id="Oval" cx="72.3740426" cy="88.2729787" r="5.1293617"></circle>
                <polyline id="Path" points="24.8544681 60.3638298 24.8544681 76.4817021 31.2557447 84.77 31.2557447 97.4578723"></polyline>
                <path d="M42.473617,60.3638298 L42.473617,76.4817021" id="Path"></path>
                <polyline id="Path" points="52.096383 97.4787234 52.096383 87.7829787 46.7897872 84.3738298"></polyline>
                <polyline id="Path" points="58.4976596 60.3638298 58.4976596 81.0376596 67.9848936 86.1670213"></polyline>
                <circle id="Oval" cx="72.3740426" cy="65.4931915" r="5.1293617"></circle>
                <polyline id="Path" points="86.8342553 97.4578723 86.8342553 72.2802128 77.3470213 67.1612766"></polyline>
                <path d="M50.5012766,20.4965957 L46.5708511,20.4965957 L46.5708511,12.6253191 C46.5593756,8.74521487 43.413734,5.60423349 39.533617,5.59851064 L31.1306383,5.59851064 C27.2545921,5.60996137 24.1152805,8.74927292 24.1038298,12.6253191 L24.1038298,20.4965957 L20.1734043,20.4965957 C18.3654355,20.4965957 16.8997872,21.962244 16.8997872,23.7702128 L16.8997872,48.1138298 C16.894218,48.984699 17.2369914,49.8216629 17.8518217,50.4384512 C18.466652,51.0552396 19.3025217,51.4006725 20.1734043,51.3978723 L50.5012766,51.3978723 C51.3713032,51.3978768 52.2055443,51.051548 52.8197672,50.4353691 C53.43399,49.8191901 53.7776644,48.983852 53.7748936,48.1138298 L53.7748936,23.7702128 C53.7691706,21.9646199 52.3068695,20.5023187 50.5012766,20.4965957 Z M40.9723404,18.9431915 L40.9723404,20.4965957 L29.6919149,20.4965957 C29.6919149,19.9857447 29.6919149,19.5061702 29.6919149,18.9431915 L29.6919149,14.7208511 C29.7033022,12.773672 31.2789912,11.197983 33.2261702,11.1865957 L37.4485106,11.1865957 C39.3939768,11.1980315 40.966652,12.7753596 40.9723404,14.7208511 L40.9723404,18.9431915 Z" id="Shape" fill="#FFFFFF" fill-rule="nonzero"></path>
                <path d="M40.5761702,32.3712766 C40.5893985,34.0499589 39.8182204,35.6385857 38.4910638,36.6665957 C38.4297089,36.7243847 38.3634292,36.7767108 38.2929787,36.8229787 L38.2929787,40.8055319 C38.2929787,42.5328906 36.8926778,43.9331915 35.1653191,43.9331915 C33.4379605,43.9331915 32.0376596,42.5328906 32.0376596,40.8055319 L32.0376596,36.8229787 C30.2700293,35.6966291 29.3081886,33.6537537 29.5661569,31.5736978 C29.8241251,29.4936418 31.2558647,27.747618 33.2450906,27.0871932 C35.2343164,26.4267685 37.4260258,26.9698041 38.8768085,28.4825532 C39.4099601,28.9699551 39.8359906,29.5628475 40.1278723,30.223617 C40.4235345,30.9010165 40.5761528,31.6321649 40.5761702,32.3712766 L40.5761702,32.3712766 Z" id="Path" fill="#EAE5FA" fill-rule="nonzero"></path>
                <path d="M68.1308511,31.9855319 L68.1308511,24.1768085 L73.2810638,24.1768085 C73.6266917,24.1768085 73.9581636,24.0395084 74.2025594,23.7951126 C74.4469552,23.5507167 74.5842553,23.2192449 74.5842553,22.873617 L74.5842553,16.5140426 C74.584278,15.7926039 74.0024798,15.2061512 73.2810638,15.2004255 L68.1308511,15.2004255 L68.1308511,10.3317021 L70.7476596,10.3317021 C71.4016958,10.3260392 71.9305072,9.79722775 71.9361702,9.14319149 L71.9361702,6.42212766 C71.9389473,6.10414644 71.8152869,5.79808698 71.5923953,5.57128503 C71.3695037,5.34448309 71.065641,5.21551899 70.7476596,5.21276596 L68.1308511,5.21276596 L68.1308511,1.82446809 C68.1308511,1.1047353 67.5473924,0.521276596 66.8276596,0.521276596 L62.6574468,0.521276596 C61.937714,0.521276596 61.3542553,1.1047353 61.3542553,1.82446809 L61.3542553,31.9855319 C55.2789709,33.6864889 51.3918372,39.6110403 52.2503003,45.8612704 C53.1087633,52.1115006 58.4492823,56.7686429 64.7581915,56.7686429 C71.0671007,56.7686429 76.4076197,52.1115006 77.2660827,45.8612704 C78.1245457,39.6110403 74.2374121,33.6864889 68.1621277,31.9855319 L68.1308511,31.9855319 Z M64.7321277,50.0425532 C62.3393472,50.0467696 60.1800252,48.6080809 59.2623991,46.3982442 C58.3447729,44.1884076 58.8498536,41.6433359 60.5418075,39.951382 C62.2337614,38.2594281 64.7788331,37.7543473 66.9886698,38.6719735 C69.1985064,39.5895997 70.6371951,41.7489217 70.6329787,44.1417021 C70.6329787,47.4006522 67.9910777,50.0425532 64.7321277,50.0425532 L64.7321277,50.0425532 Z" id="Shape" fill="#EAE5FA" fill-rule="nonzero"></path>
                <path d="M40.5761702,32.3712766 C40.5893985,34.0499589 39.8182204,35.6385857 38.4910638,36.6665957 C36.5797719,36.1446907 35.2884166,34.3640496 35.3861071,32.3851917 C35.4837975,30.4063339 36.9442565,28.7615419 38.8976596,28.4304255 C39.4308112,28.9178274 39.8568417,29.5107199 40.1487234,30.1714894 C40.4443445,30.8665247 40.5899988,31.6161112 40.5761702,32.3712766 L40.5761702,32.3712766 Z" id="Path" fill="#FFFFFF" fill-rule="nonzero"></path>
                <path d="M61.3229787,7.79829787 L65.4202128,7.79829787" id="Path"></path>
                <path d="M61.3229787,11.2178723 L65.4202128,11.2178723" id="Path"></path>
                <path d="M61.3229787,14.6478723 L65.4202128,14.6478723" id="Path"></path>
            </g>
        </g>
    </g>
</svg>