<?xml version="1.0" encoding="UTF-8"?>
<svg width="96px" height="96px" viewBox="0 0 96 96" version="1.1" xmlns="http://www.w3.org/2000/svg" xmlns:xlink="http://www.w3.org/1999/xlink">
    <!-- Generator: Sketch 54.1 (76490) - https://sketchapp.com -->
    <title>keypair</title>
    <desc>Created with Sketch.</desc>
    <g id="Main" stroke="none" stroke-width="1" fill="none" fill-rule="evenodd">
        <g id="My-Kin-Wallet-992" transform="translate(-407.000000, -403.000000)" stroke="#9A62FE" stroke-width="1.42">
            <g id="keypair" transform="translate(405.000000, 403.000000)">
                <rect id="Rectangle" fill="#EAE5FA" fill-rule="nonzero" transform="translate(70.754931, 27.252251) rotate(45.000000) translate(-70.754931, -27.252251) " x="56.4249314" y="3.74225099" width="28.66" height="47.02" rx="2.85"></rect>
                <path d="M23.0961604,26.3637155 L51.6761604,26.3637155 C54.0012792,26.3637155 55.8861604,28.2485967 55.8861604,30.5737155 L55.8861604,86.2037155 C55.8861604,90.9809785 52.0134235,94.8537155 47.2361604,94.8537155 L27.5361604,94.8537155 C22.7588973,94.8537155 18.8861604,90.9809785 18.8861604,86.2037155 L18.8861604,30.5837155 C18.8861604,28.2585967 20.7710416,26.3737155 23.0961604,26.3737155 L23.0961604,26.3637155 Z" id="Path" fill="#FFFFFF" fill-rule="nonzero" transform="translate(37.386160, 60.608715) rotate(45.000000) translate(-37.386160, -60.608715) "></path>
                <path d="M19.78,78.22 L46.64,51.36" id="Path"></path>
                <polyline id="Path" points="34.73 50.23 31.61 53.35 31.87 66.12"></polyline>
                <polyline id="Path" points="43.08 67.95 40.28 70.75 27.57 70.42"></polyline>
                <circle id="Oval" fill="#EAE5FA" fill-rule="nonzero" cx="48.94" cy="49.06" r="2.85"></circle>
                <circle id="Oval" fill="#EAE5FA" fill-rule="nonzero" cx="36.58" cy="48.38" r="2.85"></circle>
                <circle id="Oval" fill="#EAE5FA" fill-rule="nonzero" cx="44.78" cy="66.25" r="2.85"></circle>
                <path d="M83.14,6.39 L79.2,10.33 C78.9795334,10.5479172 78.85546,10.8450106 78.85546,11.155 C78.85546,11.4649894 78.9795334,11.7620828 79.2,11.98 L80.06,12.85 C80.6449068,13.4356351 80.6449068,14.3843649 80.06,14.97 L76.77,18.27 C76.1685412,18.8358209 75.2241152,18.8135467 74.65,18.22 L73.78,17.36 C73.3236212,16.9061645 72.5863788,16.9061645 72.13,17.36 L68.52,21 C68.2995334,21.2179172 68.17546,21.5150106 68.17546,21.825 C68.17546,22.1349894 68.2995334,22.4320828 68.52,22.65 L69.39,23.52 C69.9706453,24.1112856 69.9706453,25.0587144 69.39,25.65 L66.11,28.93 C65.5125323,29.4919402 64.5757403,29.4741811 64,28.89 L63.18,28 C62.7214097,27.5515568 61.9885903,27.5515568 61.53,28 L57.84,31.69 C57.6603011,31.8623575 57.5470129,32.092474 57.52,32.34" id="Path"></path>
                <path d="M43.19,28.64 L58.29,43.74" id="Path" fill="#FFFFFF" fill-rule="nonzero"></path>
                <path d="M62.35,47.8 L67.07,52.52" id="Path" fill="#FFFFFF" fill-rule="nonzero"></path>
                <path d="M87.05,19.96 L92.68,25.59" id="Path" fill="#FFFFFF" fill-rule="nonzero"></path>
            </g>
        </g>
    </g>
</svg>