<svg xmlns="http://www.w3.org/2000/svg" viewBox="0 0 96 96"><defs><style>.cls-1{fill:#fff;}.cls-1,.cls-2{stroke:#9a62fe;stroke-width:1.42px;}.cls-2{fill:#ebd9ff;stroke-miterlimit:10;}</style></defs><title>Ledger_new</title><g id="Layer_1" data-name="Layer 1"><path class="cls-1" d="M4.41,13.31H80.27a0,0,0,0,1,0,0V42.65a0,0,0,0,1,0,0H4.41A2.61,2.61,0,0,1,1.8,40V15.92a2.61,2.61,0,0,1,2.61-2.61Z"/><path class="cls-2" d="M16.61,21.85H70.27a0,0,0,0,1,0,0V34.1a0,0,0,0,1,0,0H16.61a.84.84,0,0,1-.84-.84V22.69a.84.84,0,0,1,.84-.84Z"/><path class="cls-1" d="M24.62,30.67H86.79a14.56,14.56,0,0,1,14.56,14.56v.22A14.56,14.56,0,0,1,86.79,60H24.62a1.74,1.74,0,0,1-1.74-1.74V32.42a1.74,1.74,0,0,1,1.74-1.74Z" transform="translate(-13.87 57.2) rotate(-45)"/><circle class="cls-1" cx="78.45" cy="29.01" r="9"/><circle class="cls-2" cx="78.45" cy="29.01" r="6.12"/></g></svg>