<?xml version="1.0" encoding="UTF-8"?>
<svg width="65px" height="65px" viewBox="0 0 65 65" version="1.1" xmlns="http://www.w3.org/2000/svg" xmlns:xlink="http://www.w3.org/1999/xlink">
    <!-- Generator: sketchtool 54.1 (76490) - https://sketchapp.com -->
    <title>332D1583-0119-46FE-8407-1D8AC21E74C2</title>
    <desc>Created with sketchtool.</desc>
    <defs>
        <path d="M35.1970608,21.8556989 C35.1970608,22.74732 34.4767865,23.4698024 33.5878152,23.4698024 L32.0849987,23.4698024 C30.4695705,23.4698024 29.1606231,24.7827243 29.1606231,26.4025687 L29.1544405,26.4025687 C29.1544405,28.0224131 30.6563737,29.335335 32.271802,29.335335 L33.6001804,29.335335 C34.4820859,29.335335 35.1970608,30.052518 35.1970608,30.93619 L35.1970608,35.3532249 L30.751321,35.3532249 C29.8694155,35.3532249 29.1544405,34.6360418 29.1544405,33.7519283 L29.1544405,32.2738423 C29.1544405,30.6544395 27.7911745,29.2867573 26.1757462,29.2867573 L26.1757462,29.2810163 C24.560318,29.2810163 23.3043644,30.7140575 23.3043644,32.4204585 L23.3043644,33.7656183 C23.3043644,34.6422244 22.5955721,35.3532249 21.7207324,35.3532249 L17.7726929,35.3532249 L17.7726929,17.4876833 L21.7529703,17.4876833 C22.6097038,17.4876833 23.3043644,18.1841105 23.3043644,19.0434936 L23.3043644,20.5370361 C23.3043644,22.1568805 24.6954522,23.5515012 26.3108805,23.5515012 C27.9263087,23.5515012 29.1544405,22.1568805 29.1544405,20.5370361 L29.1544405,19.1013452 C29.1544405,18.2097241 29.8751565,17.4876833 30.7636862,17.4876833 L35.1970608,17.4876833 L35.1970608,21.8556989 Z M52.3427696,22.1347997 C51.4776455,19.3203863 50.0825832,16.8945942 45.5688346,12.4166164 L40.4332918,7.32081901 C35.9199848,2.84284124 33.4831524,1.46676838 30.6621147,0.623725031 C27.8415186,-0.218876705 24.9599797,-0.207836325 22.1455662,0.657287783 C19.3315944,1.52241189 16.9058023,2.9174742 12.4273829,7.43078119 L7.32098676,12.5773643 C2.84300898,17.0906713 1.46693613,19.5279454 0.62389278,22.3485415 C-0.21915057,25.1695791 -0.207668575,28.0506765 0.657455533,30.8650899 C1.52257964,33.6790618 2.91764195,36.1052955 7.43094893,40.5832733 L12.5664917,45.678629 C17.0802403,50.1570484 19.5166312,51.5331213 22.3376688,52.375723 C25.1587065,53.219208 28.0398038,53.207726 30.8542173,52.3426019 C33.6686307,51.4774778 36.0944228,50.0824155 40.5724006,45.5686669 L45.6787968,40.4225253 C50.1567745,35.9087767 51.533289,33.4723859 52.3758907,30.6513482 C53.2189341,27.8303105 53.2078937,24.9487716 52.3427696,22.1347997 L52.3427696,22.1347997 Z" id="path-1"></path>
        <filter x="-17.0%" y="-17.0%" width="134.0%" height="134.0%" filterUnits="objectBoundingBox" id="filter-2">
            <feOffset dx="0" dy="0" in="SourceAlpha" result="shadowOffsetOuter1"></feOffset>
            <feGaussianBlur stdDeviation="3" in="shadowOffsetOuter1" result="shadowBlurOuter1"></feGaussianBlur>
            <feColorMatrix values="0 0 0 0 0.571322279   0 0 0 0 0.571322279   0 0 0 0 0.571322279  0 0 0 0.5 0" type="matrix" in="shadowBlurOuter1"></feColorMatrix>
        </filter>
    </defs>
    <g id="Symbols" stroke="none" stroke-width="1" fill="none" fill-rule="evenodd">
        <g id="Footer/Dev-576" transform="translate(-21.000000, -12.000000)">
            <g id="Group-2" transform="translate(27.000000, 18.000000)">
                <g id="Fill-4-Copy">
                    <use fill="black" fill-opacity="1" filter="url(#filter-2)" xlink:href="#path-1"></use>
                    <use fill="#FFFFFF" fill-rule="evenodd" xlink:href="#path-1"></use>
                </g>
            </g>
        </g>
    </g>
</svg>